<?xml version="1.0" encoding="utf-8"?>
<!-- Generator: Adobe Illustrator 26.0.0, SVG Export Plug-In . SVG Version: 6.00 Build 0)  -->
<svg version="1.1" id="Layer_1" xmlns="http://www.w3.org/2000/svg" xmlns:xlink="http://www.w3.org/1999/xlink" x="0px" y="0px"
	 viewBox="0 0 17.2 17.2" style="enable-background:new 0 0 17.2 17.2;" xml:space="preserve">
<style type="text/css">
	.st0{opacity:0.25;}
	.st1{fill:#66A772;}
	.st2{fill:#FF666F;}
	.st3{fill:#A57939;}
	.st4{fill:none;stroke:#000000;stroke-width:0.5;stroke-linecap:round;stroke-linejoin:round;}
	.st5{fill:none;stroke:#000000;stroke-width:0.5;stroke-miterlimit:10;}
</style>
<g>
	<g>
		<g id="XMLID_00000029012852849171826560000000599183881346183837_" class="st0">
			<g>
				<path class="st1" d="M10.8,6.5c2,2,2.8,5,1.8,7.9L7.8,9.5L10.8,6.5z"/>
				<path class="st1" d="M10.8,6.5l-3,3L2.9,4.6C4.7,4,6.6,4.1,8.4,4.9C9.3,5.3,10.1,5.8,10.8,6.5z"/>
			</g>
			<g>
			</g>
		</g>
	</g>
	<g id="color">
		<g id="_1F3F9">
			<path class="st2" d="M6.5,10.7l-2.2,2.2V15c0,0.1,0.1,0.2,0.2,0.2c0,0,0.1,0,0.1-0.1l1.8-1.8c0,0,0.1-0.1,0.1-0.1L6.5,10.7z"/>
			<path class="st2" d="M6.5,10.7l-2.2,2.2H2.2c-0.1,0-0.2-0.1-0.2-0.2c0,0,0-0.1,0.1-0.1l1.8-1.8c0,0,0.1-0.1,0.1-0.1H6.5z"/>
		</g>
	</g>
	<g>
		<g id="XMLID_00000150098865928012293470000013385587662786893199_">
			<g>
				<path class="st3" d="M13.7,8.3c1,2.3,1,4.9,0,7.2c-0.1,0.4-0.6,0.5-1,0.4c-0.1,0-0.2-0.1-0.2-0.2c-0.2-0.2-0.3-0.5-0.1-0.8
					c0.1-0.2,0.2-0.4,0.2-0.6c0.9-2.8,0.2-5.9-1.8-7.9l1-1C12.5,6.3,13.2,7.2,13.7,8.3z"/>
				<path class="st3" d="M11.7,5.5l-1,1C10,5.8,9.2,5.3,8.3,4.9C6.6,4.1,4.6,4,2.8,4.6C2.6,4.7,2.4,4.8,2.2,4.9
					c-0.4,0.2-0.8,0-1-0.4c-0.2-0.4,0-0.8,0.4-1C5.2,2,9.2,2.9,11.7,5.5z"/>
			</g>
			<g>
				<polyline class="st4" points="2.8,4.6 7.7,9.5 12.5,14.4 				"/>
				<path class="st5" d="M11.7,5.5c0.8,0.8,1.4,1.7,1.9,2.8c1,2.3,1,4.9,0,7.2c-0.1,0.4-0.6,0.5-1,0.4c-0.1,0-0.2-0.1-0.2-0.2
					c-0.2-0.2-0.3-0.5-0.1-0.8c0.1-0.2,0.2-0.4,0.2-0.6c0.9-2.8,0.2-5.9-1.8-7.9C10,5.8,9.2,5.3,8.3,4.9C6.6,4.1,4.6,4,2.8,4.6
					C2.6,4.7,2.4,4.8,2.2,4.9c-0.4,0.2-0.8,0-1-0.4c-0.2-0.4,0-0.8,0.4-1C5.2,2,9.2,2.9,11.7,5.5z"/>
				<polyline class="st4" points="14.9,2.3 11.7,5.5 10.7,6.5 7.7,9.5 3.7,13.5 				"/>
				<polyline class="st4" points="13.2,2.3 14.9,2.3 14.9,3.9 				"/>
			</g>
		</g>
	</g>
</g>
</svg>
